# xmcd CD database file
#
# Track frame offsets:
#	182
#	17837
#	32335
#	62115
#	89785
#	110922
#	129130
#	141955
#	162805
#	178865
#
# Disc length: 2711 seconds
#
# Revision: 0
# Processed by: cddbd v1.5.1PL0 Copyright (c) Steve Scherf et al.
# Submitted via: CDex 1.51
#
DISCID=880a950a
DTITLE=Homesick James - Juanita
DYEAR=1994
DGENRE=Blues
TTITLE0=Juanita
TTITLE1=My Baby
TTITLE2=Time Is Growin' Near
TTITLE3=Lonesome Ol' Train
TTITLE4=Someday Baby
TTITLE5=Drivin' Dog
TTITLE6=Careles Love
TTITLE7=The Right Life
TTITLE8=Can't Hold Out
TTITLE9=Stop That Thing
EXTD=YEAR: 1994
EXTT0=
EXTT1=
EXTT2=
EXTT3=
EXTT4=
EXTT5=
EXTT6=
EXTT7=
EXTT8=
EXTT9=
PLAYORDER=
